<?xml version="1.0" standalone="no"?>
<!DOCTYPE svg PUBLIC "-//W3C//DTD SVG 20010904//EN"
 "http://www.w3.org/TR/2001/REC-SVG-20010904/DTD/svg10.dtd">
<svg version="1.0" xmlns="http://www.w3.org/2000/svg"
 width="1536.000000pt" height="1024.000000pt" viewBox="0 0 1536.000000 1024.000000"
 preserveAspectRatio="xMidYMid meet">

<g transform="translate(0.000000,1024.000000) scale(0.100000,-0.100000)"
fill="#000000" stroke="none">
<path d="M7345 8126 c-274 -165 -877 -525 -1208 -721 -54 -32 -96 -59 -95 -60
5 -4 357 -214 378 -225 18 -10 87 29 554 309 294 176 571 342 616 370 45 28
88 51 96 51 7 0 147 -80 311 -178 911 -546 923 -553 941 -543 43 23 357 212
365 220 4 4 -83 62 -195 128 -507 300 -826 489 -1111 659 -170 101 -314 184
-320 184 -7 -1 -156 -88 -332 -194z"/>
<path d="M8170 7148 c-113 -66 -272 -160 -353 -209 l-148 -88 -132 78 c-73 43
-170 101 -217 129 -53 32 -92 50 -103 46 -9 -3 -79 -42 -155 -86 -75 -45 -154
-91 -174 -102 -21 -12 -38 -24 -38 -27 0 -6 400 -250 690 -422 120 -70 137
-78 155 -66 20 13 1038 622 1064 637 9 5 -45 43 -174 120 -102 62 -192 112
-198 112 -7 -1 -104 -55 -217 -122z"/>
<path d="M5980 6271 l0 -970 123 -72 c111 -66 547 -323 657 -389 25 -15 214
-127 420 -250 206 -122 387 -231 403 -242 l27 -19 0 235 c0 234 0 236 -22 249
-13 8 -76 45 -141 83 -65 38 -331 195 -590 349 l-472 280 -3 741 -2 741 -153
90 c-83 50 -173 103 -199 118 l-48 27 0 -971z"/>
<path d="M9162 7123 l-192 -115 0 -742 1 -741 -214 -125 c-117 -69 -394 -233
-615 -365 l-402 -239 0 -239 c0 -131 3 -236 8 -234 4 3 93 56 197 119 184 112
638 382 1168 697 l257 153 0 974 c0 536 -3 974 -7 973 -5 0 -95 -53 -201 -116z"/>
<path d="M6520 6682 l0 -237 293 -174 c160 -95 313 -187 340 -203 l47 -30 0
-248 0 -249 201 -120 c110 -67 203 -121 205 -121 2 0 4 220 4 489 l0 489 -122
73 c-68 40 -199 118 -293 174 -341 205 -664 395 -669 395 -3 0 -6 -107 -6
-238z"/>
<path d="M8475 6716 c-66 -40 -258 -155 -427 -256 l-308 -182 0 -660 c0 -363
3 -658 8 -656 4 2 23 13 42 25 19 12 112 69 205 125 l170 104 -4 364 c-2 201
0 388 3 415 l8 50 211 126 212 126 0 247 c0 135 0 246 0 246 0 -1 -54 -34
-120 -74z"/>
<path d="M8564 3934 c3 -9 6 -339 6 -735 l0 -719 155 0 155 0 0 735 0 735
-161 0 c-143 0 -160 -2 -155 -16z"/>
<path d="M10330 3215 l0 -735 145 0 145 0 0 72 0 72 48 -46 c163 -161 463
-155 646 13 117 106 169 235 170 419 0 124 -14 190 -61 285 -54 107 -144 187
-268 236 -52 20 -77 23 -190 24 -121 0 -134 -2 -188 -27 -32 -15 -76 -42 -98
-59 l-39 -31 0 256 0 256 -155 0 -155 0 0 -735z m661 79 c108 -32 179 -142
179 -278 0 -174 -100 -286 -256 -286 -162 0 -253 88 -262 256 -9 169 61 281
195 313 57 14 84 13 144 -5z"/>
<path d="M3890 3170 l0 -692 398 4 c366 4 403 6 473 26 284 78 457 277 489
564 11 99 1 228 -26 318 -65 220 -251 388 -494 446 -63 15 -135 18 -457 22
l-383 4 0 -692z m681 420 c123 -23 234 -99 288 -194 86 -153 72 -404 -30 -520
-88 -100 -218 -136 -486 -136 l-133 0 0 430 0 430 154 0 c84 0 177 -5 207 -10z"/>
<path d="M7113 3545 c-138 -38 -274 -140 -336 -253 -58 -106 -81 -272 -57
-403 5 -30 28 -91 50 -135 46 -95 135 -185 222 -228 175 -85 413 -87 587 -4
87 41 186 140 229 228 109 223 71 485 -95 648 -80 79 -143 115 -249 142 -93
24 -271 26 -351 5z m259 -257 c56 -17 121 -78 149 -140 18 -42 23 -70 23 -133
-1 -101 -28 -169 -90 -224 -108 -95 -295 -77 -375 34 -37 52 -63 154 -56 221
11 108 80 210 163 239 48 17 134 19 186 3z"/>
<path d="M9378 3550 c-88 -16 -237 -74 -252 -98 -4 -7 77 -218 88 -229 1 -2
27 10 57 26 85 46 168 64 284 59 83 -3 107 -7 137 -26 40 -25 78 -91 78 -136
0 -28 0 -28 -47 -21 -81 12 -284 7 -361 -9 -131 -28 -230 -95 -273 -184 -18
-37 -22 -65 -23 -132 0 -100 22 -162 82 -223 83 -86 159 -111 327 -111 136 0
199 18 280 80 l45 34 0 -50 0 -50 151 0 151 0 -4 363 c-4 339 -6 366 -26 429
-40 122 -139 216 -272 260 -53 17 -94 22 -220 24 -85 1 -176 -1 -202 -6z m304
-611 l88 -12 0 -56 c0 -108 -66 -178 -177 -188 -81 -7 -122 1 -162 35 -28 23
-34 36 -38 77 -8 96 41 135 191 154 5 0 49 -4 98 -10z"/>
<path d="M5452 3168 c4 -427 6 -436 74 -535 73 -106 183 -161 339 -170 140 -8
257 26 340 98 l35 31 0 -56 0 -56 145 0 145 0 0 535 0 535 -160 0 -160 0 0
-322 c0 -303 -2 -326 -21 -368 -40 -89 -97 -124 -204 -124 -93 -1 -152 31
-187 101 -23 47 -23 55 -26 381 l-3 332 -160 0 -160 0 3 -382z"/>
<path d="M8078 2840 c-150 -80 -131 -307 31 -365 61 -21 108 -19 166 9 58 27
78 47 100 99 40 97 -1 209 -97 258 -50 26 -150 25 -200 -1z"/>
</g>
</svg>
