<?xml version="1.0" standalone="no"?>
<!DOCTYPE svg PUBLIC "-//W3C//DTD SVG 20010904//EN"
 "http://www.w3.org/TR/2001/REC-SVG-20010904/DTD/svg10.dtd">
<svg version="1.0" xmlns="http://www.w3.org/2000/svg"
 width="437.000000pt" height="469.000000pt" viewBox="0 0 437.000000 469.000000"
 preserveAspectRatio="xMidYMid meet">

<g transform="translate(0.000000,469.000000) scale(0.100000,-0.100000)"
fill="#000000" stroke="none">
<path d="M1609 4017 c-295 -177 -661 -396 -813 -486 -152 -91 -275 -165 -273
-167 5 -4 358 -214 377 -224 18 -10 87 29 554 309 294 176 571 342 616 370 45
28 88 51 96 51 7 0 147 -80 311 -178 911 -546 923 -553 941 -543 46 24 358
213 365 220 6 6 -4 16 -22 25 -17 9 -132 77 -255 150 -123 74 -349 208 -502
299 -154 90 -404 239 -557 331 -153 91 -284 166 -290 165 -7 0 -253 -145 -548
-322z"/>
<path d="M2650 3168 c-113 -66 -272 -160 -353 -209 l-148 -88 -132 78 c-73 43
-170 101 -217 129 -53 32 -92 50 -103 46 -9 -3 -79 -42 -155 -86 -75 -45 -154
-91 -174 -102 -21 -12 -38 -24 -38 -27 0 -6 400 -250 690 -422 120 -70 137
-78 155 -66 20 13 1038 622 1064 637 9 5 -45 43 -174 120 -102 62 -192 112
-198 112 -7 -1 -104 -55 -217 -122z"/>
<path d="M465 3237 c4 -14 8 -453 8 -975 l2 -950 295 -172 c162 -95 523 -309
802 -476 279 -167 510 -304 513 -304 3 0 5 103 5 230 0 227 0 230 -22 243 -13
8 -76 45 -141 83 -65 38 -331 195 -590 349 l-472 280 -3 741 -2 741 -153 90
c-83 50 -174 103 -200 118 l-48 27 6 -25z"/>
<path d="M3642 3143 l-192 -115 0 -742 1 -741 -214 -125 c-117 -69 -394 -233
-615 -365 l-402 -239 0 -239 0 -239 23 14 c54 35 459 278 887 533 256 152 522
311 593 353 l127 76 0 973 c0 535 -3 973 -7 972 -5 0 -95 -53 -201 -116z"/>
<path d="M1000 2702 l0 -237 293 -174 c160 -95 313 -187 340 -203 l47 -30 0
-248 0 -249 201 -120 c110 -67 203 -121 205 -121 2 0 4 220 4 489 l0 489 -292
174 c-558 333 -786 468 -792 468 -3 0 -6 -107 -6 -238z"/>
<path d="M3030 2781 c-25 -16 -217 -131 -427 -256 l-383 -228 0 -659 c0 -363
3 -658 8 -656 4 2 23 13 42 25 19 12 112 69 205 125 l170 104 -4 364 c-2 201
0 388 3 415 l8 50 211 126 212 126 0 247 c0 135 0 246 0 246 0 0 -20 -13 -45
-29z"/>
</g>
</svg>
